<svg width="493" height="199" viewBox="0 0 493 199" fill="none" xmlns="http://www.w3.org/2000/svg">
    <path d="m78.207 198.838-3.352-.145-6.706-.922c-5.971-.821-7.595-1.071-14.822-2.288l-8.115-1.366-3.91-1.131-3.91-1.131-3.714-1.743-3.716-1.743-1.936-1.322c-1.732-1.183-2.123-1.486-3.71-2.871a32.776 32.776 0 0 1-3.395-3.313 39.547 39.547 0 0 1-3.056-3.677l-1.434-1.913-2.386-4.13-2.387-4.124-1.888-4.427-1.888-4.426-3.98-13.029-1.259-6.743-1.263-6.738-1.234-13.672-.073-6.999L0 103.987l.802-13.478.912-6.804.913-6.803 1.494-6.738 1.494-6.735 2.108-6.512 2.108-6.51 2.097-4.879 2.097-4.878 2.545-4.614 2.544-4.615 3.081-4.265 3.088-4.266 1.807-1.992a62.068 62.068 0 0 1 11.683-10.126l2.157-1.448 4.524-2.283 4.525-2.284 4.795-1.531 4.786-1.528 4.98-.77 4.98-.764 2.866-.097c2.781-.097 2.945-.094 5.664.043 2.64.135 2.953.165 5.567.527 2.575.356 2.953.426 5.437 1.003 2.454.572 2.877.691 5.272 1.493 2.374.794 2.825.97 5.09 1.982 2.292 1.027 2.669 1.218 4.878 2.497 2.208 1.278 2.567 1.504 4.611 3.004 2.198 1.614 2.227 1.64 4.591 3.848l2.376 2.222 2.018 2.521 2.018 2.523 1.156 1.96c1.09 1.84 1.213 2.084 2.029 3.998.846 1.986.884 2.091 1.437 4.146l.566 2.11.24 2.301.24 2.302-.188 2.28-.189 2.28.642 1.602c.357.882 1.868 5.015 3.356 9.187l2.708 7.584 1.071 3.84c1.063 3.807 1.08 3.878 1.855 7.785l.782 3.943.847 8.063.104 4.069.104 4.07-.457 7.842c-.257 4.313-.436 7.863-.409 7.887.027.024 1.35.207 2.943.407 2.079.257 5.094.558 10.678 1.054l7.797.689 7.781.128 7.78.129 61.942 2.991c34.071 1.645 62.018 3.009 62.105 3.028.142.057.27.145.374.257a.571.571 0 0 1 .217.532c0 .385-.167.686-.438.797-.105.044-5.017.807-10.912 1.695-5.895.888-10.743 1.634-10.766 1.658-.023.025.114 4.172.309 9.217.347 9.024.355 9.174.484 9.206.074.018 48.768 10.493 108.208 23.275 59.441 12.783 108.149 23.282 108.239 23.328.219.114.457.483.457.711 0 .466-.385.899-.801.899-.1 0-48.807-10.462-108.239-23.25-72.869-15.678-108.238-23.262-108.608-23.289-.37-.027-.616-.078-.728-.151-.112-.074-3.098-.742-7.773-1.747-6.354-1.368-7.615-1.62-7.671-1.541l-5.442 7.094c-3.295 4.308-5.437 7.051-5.547 7.107a1.065 1.065 0 0 1-.415.094c-.187 0-7.64-3.987-37.585-20.107l-37.352-20.103-7.617-.109-7.617-.111-8.137-.714c-6.066-.532-8.866-.806-10.994-1.074-1.571-.198-2.864-.35-2.874-.339-.01.012-.303 2.584-.65 5.716-.613 5.537-.659 5.883-1.668 12.369l-1.035 6.675-1.396 6.443-1.396 6.444-3.707 12.507-2.322 5.692-2.324 5.696-1.56 2.824c-1.54 2.791-1.576 2.839-3.326 5.305-.972 1.369-2.014 2.788-2.311 3.154-.296.366-1.712 1.797-3.135 3.191l-2.59 2.514-2.939 2.054-2.939 2.053-3.209 1.518-3.21 1.518-3.517.964-3.519.964-3.546.334c-1.95.184-3.594.33-3.643.325-.049-.005-1.606-.076-3.451-.155v-.007zm7.097-1.891 3.158-.296 3.353-.913 3.352-.913 3.127-1.469 3.123-1.47 5.66-3.952 2.499-2.451c1.374-1.348 2.713-2.703 2.972-3.01.26-.307 1.265-1.669 2.232-3.033 1.708-2.406 1.797-2.547 3.226-5.111l1.467-2.636 2.315-5.68 2.32-5.679 1.856-6.267 1.858-6.265 1.366-6.316 1.367-6.314 1.009-6.477c.982-6.298 1.027-6.64 1.661-12.324.358-3.218.642-5.858.633-5.867a3.943 3.943 0 0 0-.46-.063l-.439-.046v.272c0 .149-.205 2.458-.454 5.135-.441 4.691-.479 5.022-1.139 9.429-.667 4.462-.706 4.673-1.657 9.146-.964 4.538-.985 4.621-2.21 8.942-1.235 4.365-1.236 4.365-2.793 8.658l-1.557 4.288-3.817 8.397-2.322 4.134c-1.284 2.274-2.514 4.427-2.745 4.785-.231.358-1.523 2.189-2.869 4.068l-2.446 3.418-2.837 3.041c-2.766 2.963-2.879 3.075-4.384 4.327a37.675 37.675 0 0 1-3.273 2.46 26.823 26.823 0 0 1-3.614 2.141c-1.731.891-2.054 1.027-3.874 1.685l-1.985.714-2.963.521-2.962.522-3.124-.078-3.126-.075-3.004-.642-3.004-.642-5.71-2.282-2.476-1.451-2.474-1.45-2.115-1.659c-2.027-1.58-2.2-1.731-4.092-3.611-1.815-1.797-2.12-2.138-3.778-4.174a47.278 47.278 0 0 1-3.402-4.589 66.454 66.454 0 0 1-3.005-4.85c-1.383-2.43-1.45-2.567-3.781-7.649l-2.374-5.176-2.054-5.943-2.062-5.943-1.466-6.068-1.465-6.067-.907-6.184-.91-6.185-.384-6.379-.385-6.38.128-6.151.128-6.153.613-6.455.613-6.457 1.045-6.27 1.047-6.271 1.434-6.147c1.427-6.113 1.445-6.181 2.83-10.91 1.386-4.73 1.413-4.783 3.13-9.5l1.735-4.749 2.113-4.525 2.113-4.529 2.628-4.33 2.626-4.33 4.182-5.404 2.452-2.461 2.452-2.462 5.534-4.023 3.125-1.44 3.126-1.438 2.474-.618 2.474-.617 2.542-.212 2.54-.21 2.538.174 2.536.175 2.439.526 2.44.526 2.355.85c2.293.827 2.415.88 4.621 2.005 2.135 1.091 2.388 1.24 4.414 2.597s2.276 1.55 4.097 3.112c1.733 1.483 2.145 1.875 3.608 3.442a41.637 41.637 0 0 1 3.138 3.697l1.484 1.926 2.475 4.128 2.475 4.126 1.712 3.646c.941 2.006 1.865 4.01 2.054 4.453l.341.808.048-.447c.034-.325-.009-1.009-.163-2.532l-.212-2.088-.553-2.082c-.537-2.024-.577-2.137-1.373-4.003-.739-1.735-.924-2.098-1.893-3.744-1.074-1.821-1.075-1.824-3.082-4.328l-2.001-2.507-2.235-2.088c-2.182-2.04-2.285-2.125-4.414-3.683-2.001-1.465-2.366-1.702-4.493-2.93-2.092-1.209-2.535-1.436-4.688-2.397-2.112-.944-2.655-1.156-4.879-1.903-2.264-.76-2.761-.898-5.144-1.46-2.474-.58-2.806-.641-5.403-1.002-2.597-.36-2.93-.385-5.47-.513-2.577-.129-2.824-.129-5.37-.039l-2.67.095-4.9.752-4.899.751-4.703 1.503L50.57 6.39 46.24 8.57l-4.33 2.182-2.053 1.363a60.722 60.722 0 0 0-11.508 9.98l-1.714 1.888-3.042 4.198-3.04 4.2-2.482 4.5-2.482 4.5-4.118 9.577-2.112 6.53-2.113 6.53-1.464 6.607-1.46 6.608-1.824 13.607-.395 6.706-.398 6.702.141 13.41.614 6.835.612 6.836 1.239 6.626 1.24 6.626 1.98 6.501 1.98 6.5 3.683 8.642 2.328 4.029 2.33 4.029 1.424 1.895c2.02 2.683 3.759 4.574 6.093 6.625 1.512 1.328 1.902 1.631 3.595 2.787l1.896 1.296 3.567 1.669 3.568 1.669 3.782 1.097 3.78 1.098 8.107 1.365c7.28 1.229 8.786 1.461 14.779 2.284l6.675.915 2.67.118c3.94.174 3.962.174 7.52-.161l-.004.007zm.273-2.666 2.825-.488 1.925-.684c1.727-.613 2.1-.77 3.68-1.581a34.28 34.28 0 0 0 6.585-4.384c1.451-1.213 1.612-1.372 4.288-4.245l2.781-2.986 2.452-3.427c1.349-1.884 2.645-3.734 2.88-4.108.234-.373 1.404-2.426 2.599-4.557l2.183-3.872 3.791-8.333 1.54-4.257c1.541-4.254 1.541-4.26 2.778-8.625 1.219-4.309 1.248-4.431 2.183-8.829.915-4.317.966-4.603 1.626-9.008.651-4.343.7-4.749 1.099-9.049.545-5.847.528-5.63.419-5.665a801.01 801.01 0 0 0-5.46-.981c-4.787-.846-5.572-1.006-7.044-1.404a56.575 56.575 0 0 0-1.669-.435c0 .006.014.657.042 1.444.116 3.189.077 4.928-.234 10.382l-.294 5.177-.557 3.449-.558 3.451-1.797 6.586-1.316 3.119-1.32 3.12-1.85 2.962-1.849 2.962-2.292 2.536-2.293 2.537-2.716 2.053-2.714 2.054-6.136 2.786-1.574.385c-1.422.348-1.746.403-3.365.571l-1.79.186-2.807-.257-2.806-.256-5.135-1.737-2.325-1.427-2.328-1.424-2-1.914-2-1.913-1.244-1.7c-1.113-1.52-1.348-1.891-2.242-3.52l-.996-1.822-1.38-3.875-1.38-3.875-.825-4.082c-.796-3.94-.845-4.227-1.377-8.171-.502-3.722-.653-5.134-1.694-15.836l-1.144-11.75-.144-5.99-.144-5.99.338-6.021.336-6.022.858-5.826.857-5.827 1.463-5.695 1.462-5.696 1.013-2.767a57.91 57.91 0 0 1 2.254-5.469c1.1-2.396 1.412-2.99 2.71-5.273 1.352-2.368 1.605-2.764 3.197-5.006l1.728-2.439 4.77-5.212 2.744-2.115 2.743-2.12 1.54-.832a22.35 22.35 0 0 1 3.127-1.447 18.98 18.98 0 0 1 3.257-1.008c1.598-.376 1.742-.399 3.45-.535l1.784-.144 2.13.182 2.124.19 2.103.582 2.1.572 1.939.928c1.873.899 1.996.968 3.693 2.124 1.591 1.088 1.912 1.34 3.447 2.71a31.64 31.64 0 0 1 3.18 3.162l1.479 1.652 2.557 3.715c2.483 3.605 2.594 3.778 3.723 5.857.642 1.18 1.456 2.774 1.809 3.545.353.77.663 1.425.69 1.453.046.047.395-1.122.395-1.326 0-.049-.385-1.044-.854-2.208-.532-1.33-1.516-3.542-2.647-5.951l-1.798-3.851-2.44-4.07c-2.434-4.054-2.444-4.068-3.842-5.886a42.084 42.084 0 0 0-2.999-3.535c-1.412-1.515-1.82-1.904-3.517-3.357-1.745-1.494-2.105-1.765-3.939-3.002-1.895-1.275-2.153-1.428-4.237-2.483-2.083-1.055-2.336-1.167-4.394-1.913-2.165-.783-2.2-.794-4.557-1.308L85.852 5.4l-2.383-.167-2.377-.173-2.401.201-2.402.2-2.345.59-2.345.581-2.96 1.36-2.967 1.365-2.73 1.988-2.73 1.987-4.75 4.858-1.953 2.526-1.962 2.527-2.55 4.205-2.568 4.206-2.11 4.53-2.108 4.525-1.669 4.574c-1.65 4.527-1.687 4.634-3.087 9.418l-1.424 4.828-1.44 6.184-1.435 6.189-2.024 12.24-.588 6.085-.59 6.087-.128 6.478-.128 6.477.368 6.119.37 6.119 1.809 12.304 1.44 5.957 1.44 5.956 2.055 5.923 2.054 5.923 2.339 5.096c2.275 4.952 2.377 5.162 3.711 7.504 2.008 3.529 3.9 6.313 6.204 9.137 1.577 1.926 1.865 2.247 3.755 4.108 1.937 1.91 2.153 2.101 4.015 3.547 1.926 1.496 2.016 1.554 4.296 2.884l2.327 1.358 5.472 2.182 2.93.623 2.93.624 2.183.056c1.2.032 2.45.063 2.78.069.484.008 1.134-.082 3.418-.478l-.017.002zm.442-33.038a18.602 18.602 0 0 0 2.899-.497l1.562-.366 2.96-1.339 2.952-1.34 5.176-3.903 2.206-2.455 2.205-2.453 1.699-2.722c.934-1.497 1.73-2.783 1.77-2.859.04-.076.628-1.46 1.311-3.081l1.24-2.938.879-3.209.88-3.209 1.097-6.767.307-5.37.303-5.372-.069-3.093c-.039-1.701-.096-3.164-.129-3.251-.055-.146-.256-.211-2.494-.814-2.122-.57-2.63-.733-3.951-1.263-.835-.335-1.528-.6-1.541-.585-.013.014-.044 1.155-.068 2.53l-.045 2.505-.657 4.298-.642 4.294-1.604 6.187-1.155 2.734c-.632 1.503-1.234 2.888-1.336 3.068-.103.18-.514.843-.93 1.466a15.451 15.451 0 0 1-1.697 2.182c-.858.944-1.08 1.145-2.174 1.964-1.208.899-1.233.917-2.648 1.541l-1.422.635-4.044.642-2.039-.266-2.032-.272-1.798-.77c-.987-.424-1.876-.824-1.977-.89-.1-.065-.867-.653-1.706-1.305l-1.525-1.186-1.027-1.228c-.899-1.086-1.114-1.386-1.832-2.621l-.81-1.395-1.951-5.993-.456-3.256c-.438-3.132-.463-3.38-.66-6.575-.128-2.139-.326-6.767-.544-13.02l-.342-9.699.208-4.915.208-4.915.663-4.818.662-4.816.842-3.37.842-3.368 1.306-3.109c.719-1.71 1.376-3.225 1.461-3.37.085-.143.506-.799.937-1.458.657-1.01.958-1.391 1.898-2.422 1.086-1.19 1.155-1.249 2.462-2.195l1.345-.973 1.56-.66 1.56-.663 2.214-.29c1.217-.158 2.361-.29 2.541-.29.18 0 1.32.182 2.534.403l2.21.4 4.31 2.082 1.888 1.569 1.886 1.566 3.327 4.431 1.198 2.5c1.143 2.397 1.22 2.584 1.756 4.265.31.972.579 1.769.601 1.769.022 0 1.526-2.11 3.346-4.688 2.907-4.123 3.466-4.959 4.665-6.95 1.284-2.147 1.412-2.378 2.372-4.525.931-2.075 1.388-3.24 1.388-3.545 0-.304-2.14-4.802-3.239-6.825-1.119-2.064-1.212-2.21-3.708-5.827l-2.558-3.71-1.43-1.58a32.735 32.735 0 0 0-3.011-2.985c-1.4-1.247-1.774-1.54-3.249-2.536-1.555-1.052-1.784-1.184-3.434-1.973l-1.768-.844-1.97-.55-1.969-.552-1.986-.172-1.984-.173-1.623.135c-1.514.128-1.73.162-3.224.52a22.834 22.834 0 0 0-5.876 2.26c-1.397.754-1.439.78-4.037 2.784L74.66 27.57l-2.298 2.504-2.3 2.503-1.668 2.344c-1.506 2.118-1.81 2.58-3.106 4.85a48.127 48.127 0 0 0-2.653 5.142 56.749 56.749 0 0 0-2.225 5.403l-1.014 2.768-1.436 5.596-1.437 5.6L54.828 75.8l-.659 11.523.129 5.956.136 5.956 1.14 11.751c1.04 10.7 1.19 12.117 1.693 15.851.534 3.98.577 4.225 1.365 8.105l.814 4.004 1.341 3.762 1.347 3.772.917 1.668a23.407 23.407 0 0 0 2.108 3.301l1.19 1.627 1.877 1.798 1.877 1.797 2.101 1.283c1.156.708 2.197 1.326 2.31 1.374.115.047 1.222.428 2.457.847l2.245.76 2.279.216c2.771.256 2.855.256 4.524.098v-.007zm170.538-21.676c4.888-6.39 8.881-11.625 8.874-11.632-.008-.008-17.24-2.489-38.294-5.52-21.054-3.031-38.386-5.52-38.505-5.543a.947.947 0 0 1-.439-.257c-.193-.192-.217-.256-.217-.572 0-.41.153-.66.485-.799.174-.073 6.255.307 43.026 2.69l42.825 2.775 6.687-1.006c5.573-.839 6.634-1.013 6.361-1.053-.178-.027-24.964-1.235-55.074-2.685a82316.81 82316.81 0 0 1-55.039-2.659c-.152-.014-.256 0-.222.035.035.034 15.908 8.6 35.276 19.027 26.786 14.428 35.234 18.95 35.298 18.893.064-.056 4.077-5.303 8.963-11.694h-.005zm16.619.308c-.089-.151-1.512-2.663-3.165-5.581-1.652-2.918-3.027-5.33-3.055-5.358-.028-.028-6.441 8.232-6.503 8.41-.01.029.371.136.846.238.475.101 3.327.717 6.335 1.369 3.008.653 5.52 1.188 5.585 1.193.104 0 .101-.022-.043-.271zm.67-9.652c-.166-4.278-.315-7.795-.334-7.813-.019-.018-62.226-4.077-62.314-4.041-.028.009 12.555 1.829 27.964 4.043 15.409 2.215 28.107 4.064 28.216 4.108a.912.912 0 0 1 .326.244c.07.09 1.531 2.656 3.251 5.701 1.72 3.044 3.139 5.54 3.158 5.541.019.001-.103-3.498-.267-7.778v-.005zm-180.232 5.331c1.155-.513 1.32-.609 2.286-1.324.899-.665 1.172-.917 1.98-1.798a13.707 13.707 0 0 0 1.698-2.207c.744-1.156.778-1.222 1.907-3.9l1.155-2.728.77-3 .771-3.002 1.254-8.137.063-2.887c.036-1.588.04-2.911.009-2.941-.031-.03-.934-.404-2.008-.833l-1.954-.781-.076.466c-.054.329-.307 1.015-.859 2.334-.7 1.669-.898 2.062-1.847 3.711-.99 1.711-1.18 1.992-2.669 3.947l-1.603 2.106-.932.655c-.514.361-1.028.714-1.146.783-.237.142-2.427.633-2.824.633-.312 0-2.882-.744-3.15-.911-.11-.068-.655-.587-1.216-1.155l-1.018-1.027-.755-1.412c-.678-1.262-.811-1.569-1.303-2.994-.492-1.425-.598-1.82-1.075-4.062l-.526-2.474-.172-2.522-.164-2.52.205-2.54.207-2.542.59-2.455.59-2.455 1.581-3.901 1.14-1.76 1.14-1.759 1.302-1.097a87.27 87.27 0 0 1 1.54-1.277 7.855 7.855 0 0 1 1.173-.542c.855-.334 1.018-.374 1.973-.493l1.042-.128 1.63.342c.898.19 1.691.378 1.77.419.078.04.737.468 1.463.946l1.321.87.923 1.05.923 1.049 4.283-6.063c2.355-3.337 4.278-6.114 4.274-6.168-.004-.053-.343-1.137-.751-2.408-.738-2.3-.747-2.322-1.842-4.62l-1.102-2.311-1.566-2.095-1.566-2.094-1.69-1.412-1.69-1.412-1.985-.976-1.985-.975-2.114-.385-2.115-.385-2.118.268-2.117.27-1.4.595c-1.368.582-1.427.614-2.568 1.44-1.066.77-1.255.939-2.183 1.95-.7.725-1.321 1.521-1.855 2.376l-.832 1.27-2.524 5.988-1.698 6.77-.642 4.688-.642 4.687-.204 4.877-.205 4.878.339 9.603c.246 6.973.4 10.547.562 13.052.212 3.27.245 3.605.642 6.394l.42 2.944.947 2.883.947 2.881.714 1.226a13.23 13.23 0 0 0 1.656 2.347c.927 1.102.97 1.141 2.414 2.258l1.47 1.136 1.643.704 1.642.706 1.758.24 1.757.239 1.79-.282 1.798-.283 1.229-.548zm-3.036-20.823c.448-.094.858-.184.914-.2a11.6 11.6 0 0 0 .955-.629l.856-.604 1.484-1.952c1.325-1.744 1.59-2.137 2.48-3.678.88-1.519 1.09-1.941 1.75-3.528.414-.991.741-1.828.728-1.858-.013-.029-.99.28-2.17.69l-2.148.745-1.284.027c-.92.02-1.324 0-1.432-.051a37.71 37.71 0 0 1-1.137-.691l-.986-.613-.872-1.316-.866-1.317-.284-1.481-.285-1.471.343-1.384c.188-.761.36-1.412.385-1.46.06-.115 1.902-2.125 2.036-2.222.065-.046.711-.29 1.438-.541l1.318-.465.482.072c.168.035.341.047.513.036.047-.081.084-.167.11-.257.042-.12.731-1.358 1.533-2.75.984-1.708 1.734-2.922 2.311-3.735.468-.662.872-1.237.899-1.284.027-.046-.369-.544-.957-1.207l-1-1.135-1.105-.725c-.607-.398-1.175-.754-1.26-.79-.087-.036-.732-.186-1.435-.332l-1.283-.266-.787.103a5.679 5.679 0 0 0-1.513.385c-.713.277-.74.294-2.037 1.38l-1.315 1.098-1.015 1.57-1.014 1.571-1.498 3.7-.559 2.348-.561 2.344-.191 2.367-.19 2.367.163 2.385.164 2.386.514 2.388c.444 2.068.579 2.581 1.013 3.839.296.937.689 1.84 1.173 2.696l.673 1.245.882.87.882.87 1.122.332c.39.125.785.229 1.186.313.034-.01.431-.095.878-.189l-.001.004zm43.49-6.033c0-.045.203-3.594.45-7.893l.449-7.811-.19-7.552-.42-4.042-.421-4.036-.78-3.906c-.771-3.842-.798-3.97-1.848-7.726l-1.068-3.822-2.52-7.05c-3.031-8.478-3.092-8.645-3.154-8.645-.062 0-.331.992-.329 1.148.094.267.205.528.331.781.183.386.931 2.357 1.669 4.374 1.274 3.505 1.378 3.83 2.373 7.373.972 3.466 1.092 3.956 1.823 7.46.703 3.375.838 4.136 1.334 7.534.487 3.35.591 4.236.907 7.752l.358 3.97.152 7.78.151 7.78-.142 3.223c-.08 1.771-.128 3.235-.117 3.251.268.073.543.116.82.129.104 0 .179-.026.179-.073l-.007.001zm-2.712-.781c.022-.296.09-1.767.15-3.27.109-2.66.108-2.941-.035-10.254l-.146-7.518-.353-3.951c-.315-3.511-.415-4.365-.899-7.714-.494-3.391-.626-4.136-1.331-7.508-.724-3.466-.859-4.013-1.797-7.342-.944-3.357-1.097-3.83-2.256-7.031a394.234 394.234 0 0 0-1.261-3.45c-.009-.01-.439.929-.953 2.084-.888 1.989-1.016 2.231-2.384 4.517-1.333 2.228-1.735 2.824-5.136 7.646a804.662 804.662 0 0 0-3.715 5.296c-.02.04.238 1.168.562 2.51.501 2.066.829 3.722 2.152 10.868l1.562 8.43.514 4.364c.426 3.601.547 4.846.691 7.128.096 1.523.2 2.785.231 2.804.031.019.914.266 1.96.547 1.723.461 2.393.597 7.08 1.439 2.846.513 5.208.932 5.248.934.04.003.088-.2.112-.531l.004.002zm-16.363-5.456c-.106-1.682-.271-3.338-.654-6.576l-.513-4.329-1.561-8.431c-1.093-5.894-1.687-8.938-1.975-10.118l-.411-1.688-4.053 5.747-4.052 5.746.591.951c.416.669.859 1.533 1.493 2.914.814 1.774.965 2.159 1.554 4.006l.652 2.045.601 3.873c.485 3.128.608 4.066.642 4.878l.038 1.003 1.759.71c1.557.631 1.998.77 3.873 1.284l2.116.571.022-.169c.012-.094-.041-1.18-.12-2.415l-.002-.002zm-18.13-1.085c1.127-.385 2.054-.711 2.054-.733a8.014 8.014 0 0 0-.83-.522c-.699-.409-.95-.602-1.596-1.235-.696-.682-.817-.836-1.297-1.67l-.53-.91-.22-1.461c-.22-1.478-.222-1.58-.048-2.162.024-.085-.02-.12-.183-.151s-.453.043-1.201.305l-.988.347-1.46 1.603-.514 2.042.208 1.107.208 1.106.69 1.049.693 1.049.75.464.75.465h1.473l2.041-.693zm8.754.073c0-.162-.278-2.102-.619-4.313l-.618-4.018-.622-1.938a25.573 25.573 0 0 0-1.458-3.76c-.675-1.472-1.506-3.058-1.601-3.058-.01 0-.324.433-.696.96-.592.839-3.435 5.649-3.435 5.816a.06.06 0 0 0 .059.06c.033 0 .6.338 1.26.75l1.202.752.899 1.155c.887 1.13.911 1.172 1.284 2.097.28.631.462 1.3.541 1.986.145.935.154 1.095.085 1.563-.042.286-.081.573-.085.641-.007.098.329.257 1.813.858 1.003.405 1.86.739 1.905.743.045.004.081-.094.081-.289l.005-.005zm-5.397-2.372a7.486 7.486 0 0 0-.513-2.41c-.269-.673-.376-.848-1.05-1.71-.744-.956-.757-.967-1.501-1.43l-.899-.555c-.136-.087-.146-.078-.214.176-.06.22-.043.476.093 1.418l.167 1.156.4.685c.552.943 1.297 1.652 2.523 2.393.487.294.907.535.934.536.027.002.049-.113.049-.257l.011-.002z" fill="#000"/>
</svg>
